<?xml version="1.0" standalone="no"?>
<!DOCTYPE svg PUBLIC "-//W3C//DTD SVG 20010904//EN"
 "http://www.w3.org/TR/2001/REC-SVG-20010904/DTD/svg10.dtd">
<svg version="1.0" xmlns="http://www.w3.org/2000/svg"
 width="389.000000pt" height="389.000000pt" viewBox="0 0 389.000000 389.000000"
 preserveAspectRatio="xMidYMid meet">
<metadata>
Created by potrace 1.11, written by Peter Selinger 2001-2013
</metadata>
<g transform="translate(0.000000,389.000000) scale(0.100000,-0.100000)"
fill="#000000" stroke="none">
<path d="M1309 3883 c-3 -25 -7 -50 -11 -63 -3 -8 -3 -12 -1 -7 9 15 21 6 16
-13 -3 -12 0 -20 6 -20 7 0 9 -5 5 -12 -5 -7 -2 -9 9 -5 11 4 14 2 10 -8 -3
-8 -9 -13 -13 -10 -5 3 -12 0 -16 -6 -4 -8 -3 -9 4 -5 7 4 12 2 12 -4 0 -6 6
-8 13 -4 6 4 3 -2 -7 -14 -11 -12 -16 -25 -13 -29 4 -3 7 -1 7 5 0 7 4 12 9
12 4 0 6 -12 4 -27 -2 -16 -4 -36 -4 -45 0 -10 -5 -18 -11 -18 -6 0 -8 -3 -5
-6 4 -4 13 -1 22 6 20 16 19 6 -1 -14 -10 -10 -11 -16 -3 -16 8 0 8 -5 -2 -17
-12 -15 -12 -16 5 -10 15 6 17 5 8 -6 -9 -10 -8 -17 1 -26 9 -10 8 -11 -5 -6
-11 4 -18 2 -18 -4 0 -6 5 -11 11 -11 6 0 9 -6 6 -14 -3 -7 0 -19 6 -25 9 -9
7 -11 -8 -5 -11 4 -17 4 -13 -1 4 -4 2 -15 -5 -23 -8 -11 -8 -14 0 -9 6 4 14
3 18 -3 3 -5 -2 -10 -12 -11 -14 0 -15 -2 -3 -7 21 -10 24 -33 3 -25 -10 4
-14 2 -10 -4 4 -6 1 -14 -5 -17 -7 -3 -2 -4 12 -1 14 3 19 2 12 -1 -6 -3 -9
-11 -6 -16 4 -6 2 -8 -3 -5 -6 4 -16 0 -22 -7 -9 -11 -9 -16 0 -22 8 -4 9 -3
5 4 -4 7 -2 12 3 12 14 0 14 -17 0 -26 -8 -5 -8 -9 1 -14 8 -5 7 -9 -5 -13 -9
-4 -14 -3 -11 1 2 4 0 14 -6 22 -8 13 -9 12 -5 -1 3 -9 1 -21 -5 -27 -6 -6 -6
-12 3 -17 8 -6 10 -4 4 5 -6 9 -4 11 5 5 10 -6 7 -12 -9 -24 -15 -12 -20 -23
-15 -35 5 -14 9 -15 15 -4 7 11 9 11 9 0 0 -8 -9 -16 -21 -19 -19 -5 -35 -45
-33 -85 1 -9 -4 -14 -11 -12 -8 4 -11 -3 -10 -20 2 -14 -2 -29 -7 -33 -7 -3
-8 -1 -4 5 4 7 1 12 -9 12 -12 0 -14 -4 -6 -17 7 -13 2 -27 -19 -58 -15 -22
-28 -44 -28 -48 0 -5 -4 -12 -8 -15 -4 -4 -4 -2 0 5 3 6 3 14 -2 17 -5 3 -8
-15 -8 -39 1 -40 0 -42 -16 -28 -15 14 -16 13 -11 -8 5 -17 3 -20 -8 -14 -12
8 -12 6 0 -9 12 -15 12 -17 0 -14 -8 2 -13 -3 -11 -11 1 -7 -2 -19 -8 -26 -8
-9 -8 -14 1 -17 7 -2 5 -9 -7 -18 -10 -9 -15 -10 -10 -3 4 7 3 20 -2 29 -7 13
-9 10 -10 -13 -2 -24 -6 -54 -12 -73 -1 -3 -5 4 -10 15 -7 16 -9 17 -9 3 -1
-9 7 -22 17 -27 16 -10 16 -10 0 -11 -12 0 -15 -5 -11 -17 4 -9 2 -14 -3 -10
-6 3 -11 -3 -11 -14 -2 -18 0 -19 15 -7 15 11 15 11 5 -3 -7 -9 -9 -20 -5 -24
4 -5 -1 -5 -10 -2 -12 4 -15 2 -11 -9 3 -7 9 -14 14 -14 5 0 9 -5 9 -12 0 -6
-12 -1 -27 13 -16 13 -22 17 -15 9 13 -16 16 -34 4 -26 -12 7 -6 -54 7 -67 7
-7 7 -16 0 -29 -5 -10 -6 -18 -2 -18 4 0 -1 -7 -11 -15 -20 -15 -20 -15 0 -15
17 -1 18 -2 2 -13 -15 -12 -15 -14 0 -24 15 -10 14 -11 -5 -8 -13 2 -25 -1
-29 -6 -3 -5 -2 -9 3 -8 21 4 29 -3 29 -25 0 -14 -4 -22 -10 -19 -5 4 -7 -1
-3 -10 7 -18 -12 -19 -26 -2 -5 6 -7 4 -4 -5 2 -8 0 -24 -6 -34 -7 -15 -6 -18
7 -13 13 5 14 3 4 -13 -7 -10 -17 -16 -23 -13 -5 4 -2 -3 8 -14 14 -16 14 -20
2 -20 -8 0 -11 5 -8 10 4 6 1 7 -6 3 -7 -5 -10 -15 -7 -23 4 -8 1 -11 -5 -8
-6 4 -9 0 -7 -11 2 -11 -3 -19 -11 -19 -8 0 -16 -6 -19 -14 -3 -9 0 -11 8 -6
9 5 11 4 6 -4 -4 -6 -15 -10 -24 -9 -9 2 -16 -2 -15 -9 2 -6 -7 -15 -18 -18
-12 -4 -18 -12 -15 -21 3 -9 -1 -14 -14 -14 -13 0 -20 -7 -20 -20 0 -11 -6
-20 -14 -20 -7 0 -22 -11 -32 -25 -10 -14 -26 -25 -34 -25 -13 0 -13 -1 0 -10
13 -8 12 -10 -4 -10 -11 0 -16 -5 -13 -14 3 -8 -1 -13 -11 -12 -11 1 -17 -6
-16 -21 0 -19 -2 -21 -14 -10 -13 10 -14 9 -2 -13 12 -23 12 -24 -4 -11 -14
12 -16 12 -10 -3 3 -9 2 -22 -4 -29 -10 -13 -10 -86 1 -103 3 -6 0 -11 -7 -11
-8 0 -12 15 -11 44 1 24 -1 45 -4 48 -4 2 -7 -30 -8 -71 0 -41 3 -74 9 -74 5
0 6 5 3 10 -3 6 -2 10 3 10 6 0 13 -7 16 -16 3 -8 2 -12 -4 -9 -6 3 -10 1 -10
-5 0 -6 -5 -8 -12 -4 -7 4 -8 3 -4 -5 4 -6 12 -8 18 -5 7 5 9 1 5 -9 -3 -9 -3
-16 1 -16 18 3 20 -3 11 -33 -6 -21 -5 -36 2 -43 7 -7 8 -4 4 10 -5 16 -5 17
3 5 8 -10 7 -19 -1 -29 -8 -10 -8 -13 -1 -8 13 7 29 -19 25 -41 -1 -7 5 -15
14 -18 18 -7 20 -35 2 -53 -9 -11 -9 -13 1 -7 7 4 12 2 12 -6 0 -9 3 -9 10 2
5 8 10 10 10 4 0 -5 -5 -15 -12 -22 -9 -9 -9 -12 1 -12 7 0 10 -4 7 -9 -8 -13
20 -21 31 -10 6 6 10 4 10 -5 0 -8 -4 -13 -9 -10 -4 3 -8 0 -8 -5 0 -6 4 -11
9 -11 6 0 8 -9 6 -20 -2 -11 1 -22 6 -25 5 -4 6 -11 3 -17 -4 -7 -2 -8 5 -4 9
6 9 11 0 22 -6 8 -8 14 -5 14 11 0 31 -23 32 -37 2 -30 5 -34 16 -27 8 5 9 2
5 -9 -3 -9 -1 -19 5 -23 6 -4 8 -3 4 4 -3 6 -2 13 3 16 5 4 8 -6 6 -20 -2 -23
1 -25 22 -21 l24 4 -23 -26 c-12 -14 -16 -20 -8 -13 17 15 40 16 40 1 0 -5 -4
-7 -10 -4 -6 4 -7 -1 -3 -11 6 -16 7 -16 18 0 12 15 13 15 19 0 9 -23 7 -31
-4 -14 -8 13 -10 12 -10 -2 0 -11 8 -18 20 -18 11 0 20 -5 20 -11 0 -5 -5 -7
-12 -3 -7 4 -8 3 -4 -4 4 -6 14 -8 23 -5 11 4 14 3 9 -5 -7 -11 6 -17 27 -13
5 1 6 -3 2 -9 -6 -9 8 -15 29 -11 5 1 6 -9 4 -22 -3 -15 0 -24 8 -24 7 0 11 5
10 11 -2 6 -1 8 1 3 3 -4 10 -4 15 -1 7 4 8 2 4 -4 -4 -7 -2 -20 4 -29 9 -14
10 -14 7 -2 -3 9 1 16 9 16 7 0 11 -4 8 -9 -8 -12 28 -39 44 -33 6 2 12 0 12
-4 0 -5 -6 -12 -12 -15 -7 -3 -1 -4 15 -2 15 2 30 -1 34 -7 3 -6 1 -7 -5 -3
-7 4 -12 2 -12 -3 0 -6 5 -11 11 -11 5 0 8 -4 5 -8 -2 -4 5 -9 17 -9 17 -2 19
0 7 7 -11 7 -12 10 -2 10 8 0 16 -9 19 -21 4 -16 8 -17 14 -7 7 10 9 8 10 -7
1 -11 1 -23 1 -26 -1 -8 31 -5 46 4 8 6 10 3 5 -10 -4 -14 -3 -15 6 -7 9 8 19
4 41 -16 24 -23 66 -39 56 -21 -2 3 7 6 20 6 13 0 23 -5 21 -12 -1 -6 3 -11 8
-10 6 1 9 5 8 9 -2 4 4 5 12 2 18 -7 19 -16 4 -31 -8 -8 -7 -13 2 -18 7 -5 10
-4 6 2 -4 6 0 16 8 23 10 9 15 9 15 1 0 -6 5 -11 11 -11 5 0 8 4 4 9 -11 19
17 23 33 5 16 -17 16 -17 -1 -5 -9 8 -20 11 -23 8 -3 -3 3 -10 15 -16 12 -7
22 -7 26 -2 7 12 49 5 53 -9 2 -6 10 -4 16 6 10 13 15 14 21 4 5 -8 4 -11 -2
-7 -5 3 -10 -1 -10 -9 0 -10 4 -11 11 -4 15 15 49 13 40 -2 -6 -10 -5 -10 8
-1 8 7 19 9 23 5 5 -4 5 -1 1 6 -4 6 -2 12 3 12 6 0 11 -8 12 -17 0 -14 3 -12
10 5 5 13 13 20 19 17 15 -9 12 -18 -2 -9 -7 4 -10 3 -5 -1 13 -15 46 -13 40
2 -3 7 0 13 6 13 6 0 11 -4 11 -10 0 -5 5 -10 11 -10 5 0 7 6 3 13 -5 7 0 6
11 -3 17 -14 18 -13 13 2 -8 19 19 19 32 -2 6 -9 9 -8 14 8 5 14 14 19 30 18
21 -3 24 1 22 29 -1 19 4 32 11 32 8 0 11 -11 9 -29 -3 -23 -1 -26 10 -17 11
9 14 7 15 -7 1 -11 1 -23 0 -27 -1 -5 3 -6 9 -2 5 3 10 1 10 -5 0 -7 7 -9 16
-6 8 3 12 2 9 -4 -3 -6 -1 -10 4 -10 6 0 11 -5 11 -11 0 -5 -6 -7 -12 -3 -10
6 -10 5 -1 -8 7 -8 9 -19 5 -23 -4 -5 -1 -5 6 -1 7 4 9 12 6 18 -5 7 -2 8 5 4
7 -5 10 -14 7 -22 -3 -9 0 -11 11 -7 13 5 15 2 10 -11 -4 -10 -3 -15 3 -11 6
3 10 0 10 -7 0 -10 3 -9 11 2 8 12 9 9 4 -9 -6 -19 -4 -23 8 -18 21 8 29 -3
15 -20 -6 -7 -8 -16 -4 -20 3 -3 6 -1 6 6 0 9 4 9 14 -1 8 -7 12 -16 9 -20 -2
-5 3 -8 12 -8 10 0 13 5 9 12 -4 7 -3 8 5 4 9 -6 9 -11 0 -22 -9 -11 -9 -14 0
-14 18 0 41 -26 41 -47 0 -15 2 -16 10 -3 7 11 10 11 10 2 0 -8 5 -10 13 -6 9
6 9 4 -1 -8 -11 -14 -11 -16 0 -14 7 1 19 5 27 10 9 6 8 1 -3 -16 -14 -21 -14
-25 -1 -25 8 0 11 5 8 11 -4 6 0 5 9 -1 8 -7 19 -9 24 -5 4 4 3 -1 -4 -10 -11
-14 -10 -18 5 -26 10 -5 24 -7 32 -4 8 3 11 0 7 -6 -4 -7 2 -19 13 -29 11 -9
17 -21 14 -26 -3 -6 -1 -7 5 -3 6 3 14 1 18 -5 4 -8 9 -7 15 2 6 10 9 11 9 2
0 -7 6 -13 14 -13 8 0 17 -7 20 -16 5 -13 4 -14 -7 -6 -10 9 -14 8 -14 -2 0
-7 11 -12 26 -12 16 1 25 -4 23 -12 -2 -10 2 -10 19 -1 17 8 20 8 14 -1 -5 -9
-1 -10 16 -6 13 3 18 3 12 0 -7 -3 -13 -11 -13 -17 0 -5 3 -7 7 -4 3 4 12 2
20 -4 7 -6 22 -9 33 -6 15 4 20 1 18 -11 -2 -10 5 -17 17 -19 l20 -3 -20 9
c-18 9 -17 10 7 8 15 -1 24 -5 22 -9 -3 -4 0 -8 6 -8 6 0 8 -5 4 -12 -5 -9 -2
-9 9 1 9 7 17 10 17 5 0 -5 12 -15 27 -21 20 -10 30 -10 41 -1 11 10 13 8 10
-8 -2 -15 2 -19 25 -17 15 1 26 -1 23 -5 -2 -4 6 -7 19 -7 19 0 21 3 12 15
-10 13 -10 13 5 2 10 -8 23 -10 30 -6 10 6 11 5 1 -7 -10 -13 -10 -16 2 -16 8
0 15 5 15 11 0 6 7 0 16 -12 8 -12 25 -27 37 -32 20 -10 20 -10 5 3 -10 8 -14
17 -10 21 4 4 1 6 -7 4 -7 -2 -16 4 -18 12 -4 13 -3 13 6 0 6 -8 11 -11 11 -6
0 5 6 3 13 -3 8 -6 18 -7 22 -3 5 4 5 1 1 -6 -5 -8 -3 -13 5 -11 29 3 40 -1
33 -13 -6 -10 -4 -10 7 -2 16 13 51 15 43 3 -7 -12 27 -29 57 -29 5 0 7 -5 4
-10 -4 -7 15 -10 54 -9 47 2 59 5 51 14 -8 9 -5 12 11 11 15 -1 23 6 25 22 2
12 0 22 -5 22 -6 0 -8 -9 -6 -19 3 -14 -1 -18 -12 -14 -12 5 -12 7 -1 14 10 7
10 9 -2 9 -12 0 -12 2 -2 9 17 11 17 21 0 33 -10 8 -10 9 2 5 8 -2 14 -10 13
-16 -2 -6 1 -11 6 -11 6 0 9 8 8 18 0 11 -10 19 -26 20 -13 1 -30 11 -38 21
-12 18 -35 22 -49 8 -4 -3 3 -4 15 -2 14 2 19 0 15 -7 -4 -7 -3 -8 4 -4 17 10
15 1 -4 -14 -12 -11 -15 -11 -12 -1 2 8 -5 15 -14 16 -10 2 -18 -2 -18 -8 0
-9 -2 -9 -8 -1 -11 17 -65 28 -57 12 4 -7 -3 -2 -14 11 -12 13 -21 18 -21 12
0 -6 -8 -8 -17 -5 -15 5 -15 4 -3 -4 8 -6 18 -8 24 -5 5 3 6 1 2 -5 -11 -18
-51 3 -49 24 1 18 1 18 -13 0 -13 -18 -19 -15 -15 7 1 5 -3 6 -8 3 -5 -4 -12
-2 -16 3 -3 6 -13 7 -22 4 -10 -4 -14 -2 -10 4 7 11 -22 11 -42 -2 -10 -6 -12
-4 -6 5 6 9 2 10 -15 5 -17 -5 -21 -4 -15 6 6 11 5 11 -5 2 -16 -15 -40 -6
-41 16 0 12 -2 12 -9 -4 -8 -19 -9 -19 -9 3 -1 13 -5 20 -11 17 -6 -4 -8 -10
-5 -15 9 -14 -16 -23 -28 -11 -9 9 -8 11 6 5 13 -4 16 -2 12 8 -4 9 -16 15
-28 15 -42 1 -48 3 -41 15 6 10 5 10 -8 1 -8 -7 -18 -10 -22 -6 -3 4 -17 8
-29 10 -12 2 -29 11 -37 20 -14 15 -13 16 3 4 9 -8 20 -11 24 -7 3 3 1 6 -6 6
-7 0 -9 5 -5 12 4 7 3 8 -4 4 -7 -4 -12 -2 -12 5 0 7 -7 4 -15 -7 -13 -17 -14
-17 -15 -1 0 9 -5 17 -11 17 -5 0 -7 -6 -4 -12 4 -7 0 -5 -8 5 -8 9 -22 17
-31 17 -10 0 -15 4 -12 9 3 5 -1 11 -9 14 -10 4 -12 1 -9 -11 2 -9 -1 -7 -8 6
-8 16 -18 22 -31 18 -13 -3 -17 0 -13 10 5 14 -5 18 -33 14 -13 -1 -13 1 -2
14 8 9 11 19 7 23 -3 3 -6 1 -6 -5 0 -11 -38 -8 -49 4 -3 4 2 4 11 1 10 -3 20
-1 24 6 4 7 4 9 -1 5 -13 -12 -47 12 -41 28 4 10 2 13 -6 7 -7 -4 -21 -8 -30
-8 -14 -1 -15 1 -7 12 8 9 8 13 0 13 -6 0 -10 6 -8 12 1 7 -8 14 -20 16 -13 2
-23 8 -23 13 0 6 5 7 12 3 7 -4 8 -3 4 5 -4 6 -12 8 -18 5 -7 -5 -9 -1 -5 8 4
12 0 15 -19 13 -13 -1 -27 2 -31 8 -3 6 -1 7 5 3 17 -10 15 3 -4 21 -8 9 -13
21 -10 28 3 9 -3 12 -18 11 -13 -2 -23 3 -23 10 0 6 7 10 16 7 9 -2 3 3 -14
12 -41 23 -55 43 -55 79 0 23 -3 27 -10 16 -7 -12 -9 -10 -7 7 0 12 5 19 9 17
4 -3 8 -1 8 5 0 5 -6 11 -12 14 -7 3 -4 5 7 5 11 -1 29 3 39 7 14 6 17 5 12
-3 -4 -7 -2 -12 3 -12 6 0 11 7 11 16 0 11 5 14 16 10 12 -4 15 -2 10 9 -3 8
-1 16 4 16 20 3 25 4 36 11 6 4 14 4 18 1 10 -11 37 -12 30 -2 -3 5 -11 7 -17
3 -7 -3 -5 0 4 8 9 7 14 20 12 28 -3 9 -1 11 4 5 4 -6 14 -10 21 -9 6 1 20 2
30 3 13 1 14 3 4 10 -11 7 -11 9 2 14 8 3 17 1 20 -6 2 -7 5 -5 5 5 1 9 -5 19
-11 21 -7 3 -2 4 12 3 14 -1 32 -6 39 -11 11 -6 12 -4 5 6 -16 27 -14 40 6 29
16 -9 18 -7 15 10 -3 15 1 20 13 18 12 -2 16 3 14 16 -3 14 1 17 14 12 15 -6
15 -4 3 11 -9 11 -10 14 -1 9 7 -4 12 -1 12 9 0 9 5 13 10 10 6 -3 10 3 10 15
0 13 4 19 11 14 8 -5 10 1 7 19 -4 23 -3 25 13 16 15 -7 17 -6 13 6 -4 8 -2
21 4 28 11 14 12 48 1 42 -10 -7 -5 22 6 32 4 4 5 2 0 -6 -6 -10 -4 -12 4 -7
9 6 9 11 0 22 -6 7 -16 11 -22 7 -6 -3 -7 -1 -3 6 4 6 12 9 17 6 5 -4 9 6 9
22 0 22 -2 25 -10 13 -6 -9 -10 -10 -10 -3 0 6 5 15 10 18 6 4 8 16 4 28 -6
20 -6 20 10 4 20 -20 33 -23 18 -4 -7 8 -7 18 -2 27 5 8 6 18 4 22 -3 4 3 5
13 1 15 -5 16 -3 6 8 -7 7 -13 18 -13 23 0 6 5 4 10 -4 8 -12 10 -10 10 9 0
24 0 24 15 5 14 -18 14 -17 5 9 -8 22 -7 27 6 27 9 0 12 -5 8 -12 -4 -7 -3 -8
4 -4 9 5 9 13 1 28 -8 15 -8 19 0 14 6 -4 16 -4 22 0 8 4 7 9 -2 15 -11 7 -11
9 -1 9 7 0 10 5 6 11 -5 8 -1 8 14 0 17 -9 19 -8 15 9 -3 11 -10 17 -16 13 -6
-3 -7 -1 -3 6 6 9 11 9 21 1 11 -9 13 -6 11 14 -2 19 1 24 15 21 11 -2 19 2
19 10 0 9 -6 12 -17 8 -12 -3 -10 0 5 12 13 9 31 14 40 11 13 -5 13 -3 -2 9
-16 12 -17 15 -4 15 8 0 22 8 29 17 8 10 9 14 2 10 -8 -5 -11 -1 -10 12 1 16
4 18 15 9 10 -9 12 -8 10 3 -2 8 -10 20 -18 26 -13 11 -13 12 3 7 10 -4 17 -3
16 2 -1 5 0 12 1 17 4 12 7 26 9 37 0 6 6 10 12 10 8 0 8 -4 0 -14 -9 -10 -8
-15 2 -19 9 -3 13 2 11 16 -1 12 -3 26 -3 30 -1 5 -6 5 -13 1 -7 -5 -8 -3 -4
5 5 7 15 10 25 6 12 -5 13 -3 4 6 -8 8 -9 19 -2 36 6 18 6 22 -3 17 -7 -5 -8
-3 -3 6 4 7 2 16 -6 21 -11 7 -10 9 4 9 9 0 17 -5 17 -12 0 -6 3 -8 7 -5 3 4
-2 17 -13 29 -10 12 -13 18 -5 13 11 -6 13 -4 8 8 -3 9 -1 19 5 23 7 5 8 2 3
-6 -5 -9 -4 -11 4 -6 8 6 9 12 2 20 -6 7 -7 17 -3 21 4 5 1 5 -6 1 -7 -4 -9
-12 -6 -18 4 -7 2 -8 -5 -4 -6 4 -8 12 -5 18 4 6 0 15 -7 20 -11 8 -10 9 4 4
9 -3 17 -1 17 4 0 6 -4 10 -9 10 -4 0 -5 18 -1 40 4 23 3 40 -2 40 -5 0 -6 5
-3 10 3 6 0 10 -7 10 -9 0 -9 3 2 10 13 9 13 10 0 10 -13 0 -13 1 0 10 10 6
11 10 3 10 -7 0 -13 9 -13 20 0 11 -5 20 -12 20 -6 0 -8 3 -5 6 4 4 13 2 20
-4 10 -9 14 -8 14 3 0 8 -4 12 -8 9 -4 -2 -10 0 -14 6 -4 6 -10 8 -15 5 -5 -3
-5 8 0 25 5 17 5 32 -1 35 -5 4 -9 3 -9 -2 0 -12 -20 20 -20 32 0 6 4 4 9 -4
6 -9 11 -10 15 -2 4 6 2 11 -4 11 -6 0 -8 4 -5 10 4 6 -1 7 -11 3 -14 -5 -15
-3 -4 17 10 18 9 21 -1 15 -8 -6 -11 -4 -7 7 4 8 2 21 -4 29 -8 11 -9 11 -4
-3 3 -10 1 -20 -3 -23 -5 -3 -8 8 -7 24 1 19 -2 27 -10 24 -16 -6 -27 14 -13
23 8 5 9 3 4 -7 -7 -12 -6 -12 6 0 11 10 11 15 1 18 -6 3 -10 8 -7 13 3 4 -3
14 -13 21 -15 13 -16 12 -3 -3 9 -12 10 -18 2 -18 -6 0 -11 5 -11 11 0 5 -6 7
-12 3 -10 -6 -10 -4 0 7 17 18 15 29 -5 29 -15 0 -14 2 3 15 18 15 18 15 0 8
-13 -4 -17 -3 -12 5 4 7 2 12 -3 12 -6 0 -11 7 -11 16 0 8 -4 12 -10 9 -6 -4
-7 1 -3 11 4 11 3 15 -5 10 -6 -3 -13 -2 -17 4 -3 5 1 10 9 10 9 0 16 5 16 10
0 6 -3 9 -7 9 -20 -3 -34 2 -28 11 3 6 2 10 -4 10 -5 0 -8 9 -6 21 3 16 1 18
-8 10 -9 -7 -17 -4 -27 12 -11 19 -11 20 1 10 12 -10 15 -8 15 6 0 12 -5 17
-14 13 -11 -4 -13 1 -7 19 5 18 4 21 -4 9 -10 -13 -15 -8 -12 12 0 4 -5 5 -13
2 -9 -4 -13 2 -11 20 2 15 -1 24 -6 21 -5 -4 -17 -1 -26 5 -16 11 -16 11 -1 6
10 -3 20 -1 23 5 4 5 3 9 -2 8 -22 -4 -33 3 -33 20 0 11 -4 23 -10 26 -6 4 -7
-1 -3 -12 6 -15 5 -16 -9 -3 -8 8 -13 21 -11 28 3 7 0 19 -7 27 -14 17 -35 21
-25 5 3 -5 1 -10 -4 -10 -14 0 -14 13 1 28 9 9 9 12 -1 12 -7 0 -9 5 -5 13 6
10 4 10 -7 0 -7 -7 -18 -13 -23 -13 -6 0 -5 4 3 9 12 8 12 12 2 25 -7 9 -17
14 -21 11 -4 -3 -13 2 -20 10 -11 13 -10 14 3 10 8 -4 18 -1 23 6 4 7 3 10 -4
6 -5 -4 -17 -4 -26 -1 -13 5 -14 9 -5 20 7 8 9 17 5 21 -3 3 -6 1 -6 -5 0 -20
-28 -13 -35 8 -3 11 -11 20 -16 20 -6 0 -7 -5 -3 -12 4 -7 3 -8 -4 -4 -8 5 -9
13 -2 25 11 22 4 32 -18 24 -12 -5 -14 -2 -9 12 7 16 5 16 -10 4 -11 -9 -14
-10 -9 -1 5 8 1 12 -11 12 -15 0 -16 2 -3 10 13 8 12 10 -3 10 -10 0 -15 5
-12 10 3 6 1 10 -4 10 -6 0 -11 -5 -11 -12 0 -6 -3 -8 -6 -5 -4 4 -1 13 5 21
11 13 9 15 -7 11 -24 -4 -41 13 -37 38 3 15 1 16 -11 6 -8 -6 -17 -9 -21 -5
-3 3 0 6 7 6 9 0 7 5 -5 14 -11 8 -23 12 -27 10 -4 -2 -10 1 -14 7 -4 8 -3 9
4 5 7 -4 12 -1 12 6 -1 18 -48 50 -63 43 -6 -4 -3 1 8 10 20 17 20 17 -2 10
-14 -4 -23 -2 -23 5 0 6 -4 8 -10 5 -6 -4 -7 1 -3 12 6 16 5 17 -12 3 -17 -14
-18 -14 -5 10 11 21 11 23 -1 13 -19 -16 -54 9 -45 33 6 15 4 15 -11 3 -15
-12 -16 -12 -10 3 4 12 2 15 -9 11 -7 -3 -14 0 -14 7 0 8 -8 10 -21 7 -16 -4
-18 -3 -8 9 9 11 9 14 0 14 -7 0 -9 5 -6 10 3 6 -3 10 -14 10 -32 0 -50 11
-44 26 3 8 -1 14 -8 14 -8 0 -25 14 -38 30 -20 26 -26 28 -40 18 -9 -7 -13 -9
-9 -4 10 12 -23 45 -40 38 -10 -3 -13 -1 -8 6 9 16 -7 15 -22 0 -7 -7 -12 -9
-12 -6 0 4 7 13 14 21 13 13 11 15 -12 15 -15 0 -34 -5 -42 -11 -12 -9 -13 -9
-2 3 16 19 15 30 -3 30 -8 0 -15 4 -15 10 0 5 -10 14 -22 20 -22 11 -22 10 -4
-4 11 -9 17 -18 15 -21 -3 -3 -14 3 -25 13 -10 10 -23 20 -29 23 -5 2 -9 9 -9
16 1 6 -5 9 -12 6 -8 -3 -11 -9 -8 -15 3 -5 -3 -4 -15 4 -12 7 -21 16 -21 20
0 5 -5 8 -11 8 -5 0 -7 -6 -3 -12 5 -10 3 -10 -7 0 -8 7 -20 27 -27 45 -7 18
-10 22 -8 10 2 -13 -1 -26 -6 -30 -6 -3 -8 -1 -5 4 4 6 0 16 -8 23 -8 7 -13
16 -10 20 3 5 0 12 -6 16 -8 4 -9 3 -5 -4 4 -7 1 -12 -8 -12 -10 0 -13 6 -10
15 4 8 3 15 0 15 -3 0 -6 -3 -7 -7z m36 -53 c-3 -5 -13 -6 -21 -3 -12 4 -13 8
-3 14 15 9 32 2 24 -11z m339 -185 c3 -8 1 -15 -4 -15 -6 0 -10 7 -10 15 0 8
2 15 4 15 2 0 6 -7 10 -15z m60 -40 c13 -19 13 -23 2 -19 -8 3 -16 14 -19 25
-7 25 -3 24 17 -6z m310 -253 c3 -5 -1 -9 -9 -9 -8 0 -12 4 -9 9 3 4 7 8 9 8
2 0 6 -4 9 -8z m-777 -207 c0 -8 -4 -12 -9 -9 -5 3 -6 10 -3 15 9 13 12 11 12
-6z m374 -358 c-6 -8 -9 -16 -6 -19 3 -2 -2 -5 -10 -5 -13 0 -13 3 2 19 19 21
31 25 14 5z m-2 -64 c2 -1 -5 -1 -16 0 -11 0 -20 7 -20 14 0 10 4 10 16 1 9
-7 18 -13 20 -15z m-9 -28 c0 -2 -6 -5 -13 -8 -8 -3 -14 1 -14 8 0 7 6 11 14
8 7 -3 13 -6 13 -8z m5 -25 c3 -5 1 -10 -4 -10 -6 0 -11 5 -11 10 0 6 2 10 4
10 3 0 8 -4 11 -10z m-33 -23 c-7 -8 -8 -18 -4 -22 4 -5 1 -5 -5 -1 -10 5 -10
11 -1 26 7 11 14 17 17 15 2 -3 -1 -11 -7 -18z m9 -50 c-10 -9 -11 -8 -5 6 3
10 9 15 12 12 3 -3 0 -11 -7 -18z m29 -63 c0 -8 -19 -13 -24 -6 -3 5 1 9 9 9
8 0 15 -2 15 -3z m20 -39 c0 -7 -30 -13 -34 -7 -3 4 4 9 15 9 10 1 19 0 19 -2z
m3 -21 c-7 -3 -9 -12 -6 -20 3 -8 1 -14 -5 -14 -8 0 -9 16 -3 38 1 1 7 2 14 1
9 0 9 -2 0 -5z m27 -18 c0 -3 -4 -8 -10 -11 -5 -3 -10 -1 -10 4 0 6 5 11 10
11 6 0 10 -2 10 -4z m-26 -28 c4 3 4 -1 0 -11 -3 -9 -11 -17 -17 -17 -6 0 -7
3 -4 7 4 3 -1 12 -11 20 -15 13 -15 13 4 4 12 -6 24 -7 28 -3z m16 -42 c0 -3
-4 -8 -10 -11 -5 -3 -10 -1 -10 4 0 6 5 11 10 11 6 0 10 -2 10 -4z m37 -52
c-3 -4 -2 -16 4 -27 8 -13 8 -17 1 -13 -6 4 -10 -2 -9 -14 1 -11 4 -20 8 -20
4 0 10 -8 13 -17 6 -14 2 -12 -17 5 -13 12 -27 19 -30 15 -4 -3 -7 -1 -7 5 0
7 5 12 10 12 6 0 10 5 10 11 0 5 -5 7 -12 3 -7 -4 -8 -3 -4 5 4 6 12 8 18 5 7
-5 9 -2 5 8 -5 15 0 28 11 28 3 0 2 -3 -1 -6z m40 -111 c-4 -3 -1 -13 6 -22
11 -14 10 -14 -5 -2 -14 11 -18 11 -18 1 0 -8 -3 -10 -6 -7 -7 6 13 37 24 37
3 0 2 -3 -1 -7z m6 -57 c4 -10 1 -13 -9 -9 -7 3 -14 9 -14 14 0 14 17 10 23
-5z m10 -30 c3 3 4 -2 3 -13 -2 -10 -11 -18 -22 -19 -16 -1 -16 0 -1 3 9 3 15
9 11 14 -3 5 -9 7 -13 5 -4 -3 -8 1 -8 9 0 10 4 12 12 5 7 -5 14 -7 18 -4z
m-361 -90 c-3 -4 -8 -2 -13 5 -8 12 -11 11 -19 -1 -9 -13 -10 -13 -10 0 0 13
-1 13 -11 0 -9 -13 -10 -13 -6 0 2 8 10 14 17 12 7 -2 9 5 5 18 -6 20 -6 20
17 -2 14 -13 22 -27 20 -32z m8 44 c0 -5 -5 -10 -11 -10 -5 0 -7 5 -4 10 3 6
8 10 11 10 2 0 4 -4 4 -10z m350 -16 c0 -8 -19 -13 -24 -6 -3 5 1 9 9 9 8 0
15 -2 15 -3z m-288 -49 c15 -20 8 -28 -8 -9 -14 18 -15 18 -9 -6 5 -21 4 -22
-5 -8 -6 9 -16 16 -23 14 -6 -1 -8 -1 -3 2 4 2 2 9 -5 14 -10 6 -6 7 11 2 23
-6 24 -6 10 12 -14 18 -14 18 5 4 11 -8 23 -19 27 -25z m316 -10 c0 -14 -4
-25 -7 -25 -4 0 -7 11 -7 25 0 14 3 25 7 25 3 0 7 -11 7 -25z m-238 -46 c0 -9
-68 -4 -77 5 -4 4 8 4 26 1 31 -5 33 -4 20 11 -13 16 -12 16 9 3 12 -8 22 -17
22 -20z m277 15 c-3 -3 -12 -4 -19 -1 -8 3 -5 6 6 6 11 1 17 -2 13 -5z m-25
-18 c7 4 8 2 4 -4 -3 -6 1 -15 10 -20 15 -8 15 -10 0 -15 -10 -4 -15 -3 -11 3
3 6 2 10 -4 10 -5 0 -11 -5 -13 -12 -3 -7 -7 -5 -11 6 -4 11 -3 15 4 10 7 -4
9 1 5 17 -3 13 -3 18 0 11 3 -6 11 -9 16 -6z m-252 -20 c0 -3 -4 -8 -10 -11
-5 -3 -10 -1 -10 4 0 6 5 11 10 11 6 0 10 -2 10 -4z m56 -38 c-1 -30 -6 -43
-16 -44 -9 -1 -10 1 -2 3 7 3 10 9 6 14 -3 5 -11 6 -17 2 -8 -5 -8 -2 0 9 13
15 8 28 -9 28 -5 0 -6 -5 -2 -12 5 -7 3 -8 -5 -3 -9 5 -10 10 -2 18 7 7 15 6
27 -4 16 -12 17 -12 12 3 -5 13 -1 28 7 28 1 0 1 -19 1 -42z m224 -25 c0 -3
-3 -4 -6 0 -4 3 -14 -3 -23 -13 -12 -15 -19 -17 -31 -9 -13 9 -12 10 3 5 9 -3
17 -4 17 -2 0 3 3 13 7 23 6 16 5 17 -13 3 -18 -14 -18 -14 -5 2 10 14 18 15
32 7 10 -5 19 -13 19 -16z m-206 -39 c3 -8 2 -12 -4 -9 -6 3 -10 10 -10 16 0
14 7 11 14 -7z m202 4 c4 -7 3 -8 -4 -4 -11 7 -17 -6 -13 -27 1 -5 -3 -6 -8
-3 -5 4 -12 2 -16 -4 -3 -5 -10 -10 -15 -10 -4 0 4 14 18 30 30 34 29 34 38
18z m-164 -30 c-9 -9 -9 -15 0 -25 9 -11 8 -13 -2 -11 -7 2 -15 -3 -17 -10 -3
-8 1 -10 13 -5 16 6 17 5 4 -9 -14 -15 -16 -15 -24 4 -7 14 -6 22 5 29 13 8 6
13 -13 10 -5 0 -8 4 -8 10 0 6 7 9 15 6 8 -4 17 -2 20 3 4 6 9 10 13 10 3 0 1
-5 -6 -12z m-1039 -23 c-3 -9 -8 -14 -10 -11 -3 3 -2 9 2 15 9 16 15 13 8 -4z
m1184 -15 c1 -11 -6 -24 -16 -29 -13 -7 -18 -6 -18 4 0 7 6 11 14 8 7 -3 13 0
13 6 0 6 -5 11 -11 11 -5 0 -7 5 -4 10 10 16 21 11 22 -10z m-105 -74 c-3 -5
2 -7 11 -3 24 9 21 0 -4 -14 -17 -9 -20 -8 -14 2 6 8 4 11 -6 7 -10 -4 -15 1
-15 12 0 10 4 16 8 14 4 -3 8 0 8 5 0 6 -5 11 -11 11 -5 0 -7 5 -3 11 4 8 11
3 20 -12 7 -13 10 -28 6 -33z m121 39 c-3 -9 -8 -14 -10 -11 -3 3 -2 9 2 15 9
16 15 13 8 -4z m-28 -15 c-3 -5 0 -10 7 -10 9 -1 7 -5 -4 -14 -10 -7 -14 -17
-10 -21 4 -5 1 -5 -6 -1 -7 4 -9 13 -5 19 4 7 8 15 9 20 3 15 4 17 10 17 3 0
2 -4 -1 -10z m-65 -54 c0 -2 -7 -7 -16 -10 -8 -3 -12 -2 -9 4 6 10 25 14 25 6z
m1024 -4 c3 -5 -1 -9 -9 -9 -8 0 -12 4 -9 9 3 4 7 8 9 8 2 0 6 -4 9 -8z m-929
-31 c3 -5 1 -13 -5 -16 -6 -4 -9 -1 -8 6 2 6 -2 13 -8 16 -7 2 -10 -8 -9 -24
1 -16 7 -27 14 -25 9 2 9 -3 1 -18 -9 -16 -8 -22 6 -27 15 -5 15 -7 0 -15 -9
-5 -21 -6 -28 -2 -7 5 -8 3 -4 -5 5 -7 14 -10 22 -7 7 3 16 1 19 -4 4 -6 1
-10 -4 -10 -6 0 -11 -5 -11 -11 0 -5 6 -7 13 -3 8 5 8 2 -2 -9 -11 -14 -11
-17 0 -18 11 0 11 -2 1 -6 -10 -4 -10 -8 -1 -19 10 -12 8 -13 -7 -7 -17 6 -18
5 -4 -12 9 -11 10 -16 3 -11 -7 4 -13 5 -13 2 0 -2 -3 -13 -7 -23 -6 -15 -5
-16 9 -5 11 9 18 10 23 2 4 -6 1 -9 -7 -8 -7 2 -13 -5 -13 -14 0 -18 -2 -19
-27 -17 -10 0 -10 2 0 6 6 2 12 9 12 14 0 6 -4 7 -10 4 -5 -3 -7 0 -4 8 3 8 1
18 -5 22 -6 3 -11 11 -11 18 0 6 7 2 16 -9 13 -16 15 -16 10 -2 -3 10 -1 20 5
23 5 4 7 11 4 16 -4 5 -2 9 3 9 5 0 9 6 9 14 0 8 -6 12 -13 9 -7 -2 -21 0 -31
6 -10 6 -13 11 -8 11 6 0 12 15 13 34 2 28 -1 34 -15 32 -10 -2 -12 -1 -5 1
15 6 6 23 -11 19 -7 -1 -9 -1 -4 1 4 3 4 10 1 15 -4 6 -2 8 3 5 6 -4 14 0 17
9 3 8 2 12 -4 9 -5 -3 -18 -2 -27 4 -14 7 -7 9 27 6 39 -3 43 -2 27 10 -13 9
-15 14 -5 18 14 5 43 -8 53 -22z m-75 9 c0 -5 -2 -10 -4 -10 -3 0 -8 5 -11 10
-3 6 -1 10 4 10 6 0 11 -4 11 -10z m37 -195 c0 -8 -4 -15 -9 -15 -4 0 -8 7 -8
15 0 8 4 15 8 15 5 0 9 -7 9 -15z m22 -122 c14 11 14 10 2 -5 -11 -14 -11 -18
-1 -18 8 0 10 -3 7 -7 -4 -3 -15 1 -25 10 -10 10 -22 14 -27 10 -4 -5 -5 -2 0
5 5 10 10 11 18 3 7 -7 15 -7 26 2z m15 -56 c4 4 4 -1 0 -12 -5 -11 -9 -14
-12 -7 -2 7 -8 10 -13 6 -5 -3 -8 0 -7 8 2 7 -3 12 -10 10 -8 -1 -11 2 -7 8 5
8 13 6 24 -4 10 -9 21 -13 25 -9z m6 -87 c0 -5 -2 -10 -4 -10 -3 0 -8 5 -11
10 -3 6 -1 10 4 10 6 0 11 -4 11 -10z m30 -19 c0 -5 -7 -12 -16 -15 -14 -5
-15 -4 -4 9 14 17 20 19 20 6z m4 -61 c-21 -8 -22 -14 -5 -33 9 -11 10 -17 2
-17 -6 0 -12 5 -12 10 -1 6 -2 16 -3 23 -1 6 -8 11 -16 9 -10 -2 -11 0 -2 11
7 8 9 17 6 20 -4 4 5 1 19 -6 20 -9 22 -13 11 -17z m-19 -59 c3 -5 0 -13 -6
-17 -7 -4 -9 -3 -5 4 3 6 -2 13 -11 15 -16 4 -16 5 -1 6 9 0 19 -3 23 -8z m31
-23 c4 -6 3 -8 -3 -5 -6 4 -16 0 -23 -8 -10 -12 -9 -15 6 -15 16 0 17 -2 4
-10 -21 -14 -27 -12 -27 8 0 9 7 22 16 29 20 15 18 15 27 1z m-39 -64 c-3 -3
-12 -4 -19 -1 -8 3 -5 6 6 6 11 1 17 -2 13 -5z m50 -19 c0 -8 -4 -12 -9 -9 -5
3 -6 10 -3 15 9 13 12 11 12 -6z m20 -41 c-3 -3 -12 -4 -19 -1 -8 3 -5 6 6 6
11 1 17 -2 13 -5z m-7 -44 c-8 -5 -10 -10 -4 -10 7 0 14 -6 17 -13 3 -8 -1
-14 -9 -14 -7 0 -10 5 -7 10 4 6 0 8 -8 5 -9 -4 -15 1 -15 11 0 10 9 18 21 19
16 1 17 -1 5 -8z m-655 -50 c3 -6 -1 -7 -9 -4 -18 7 -21 14 -7 14 6 0 13 -4
16 -10z m103 -55 c-3 -3 -9 2 -12 12 -6 14 -5 15 5 6 7 -7 10 -15 7 -18z m519
-27 c-3 -8 -6 -5 -6 6 -1 11 2 17 5 13 3 -3 4 -12 1 -19z m138 2 c3 -5 2 -10
-4 -10 -5 0 -13 5 -16 10 -3 6 -2 10 4 10 5 0 13 -4 16 -10z m265 -234 c0 -3
-4 -8 -10 -11 -5 -3 -10 -1 -10 4 0 6 5 11 10 11 6 0 10 -2 10 -4z m130 -188
c0 -12 -6 -9 -26 13 -19 22 -19 22 4 8 12 -8 22 -17 22 -21z m184 -96 c3 -5
-1 -9 -9 -9 -8 0 -12 4 -9 9 3 4 7 8 9 8 2 0 6 -4 9 -8z m336 -48 c0 -2 -9 0
-20 6 -11 6 -20 13 -20 16 0 2 9 0 20 -6 11 -6 20 -13 20 -16z m30 -5 c0 -6
-4 -7 -10 -4 -5 3 -10 11 -10 16 0 6 5 7 10 4 6 -3 10 -11 10 -16z m-205 -27
c-3 -3 -11 0 -18 7 -9 10 -8 11 6 5 10 -3 15 -9 12 -12z m60 -11 c-9 -8 -36
-10 -30 -2 2 4 11 8 20 8 8 0 13 -3 10 -6z"/>
<path d="M1781 1607 c-8 -11 -3 -20 21 -43 17 -16 27 -22 22 -14 -4 8 -9 21
-11 29 -1 8 -7 17 -13 21 -9 6 -9 9 1 13 8 3 9 6 3 6 -6 1 -17 -5 -23 -12z
m20 -24 c13 -16 12 -17 -3 -4 -10 7 -18 15 -18 17 0 8 8 3 21 -13z"/>
<path d="M1793 1505 c0 -7 6 -11 14 -8 7 3 13 6 13 8 0 2 -6 5 -13 8 -8 3 -14
-1 -14 -8z"/>
<path d="M1446 3788 c3 -5 10 -6 15 -3 13 9 11 12 -6 12 -8 0 -12 -4 -9 -9z"/>
<path d="M1940 3455 c0 -2 6 -8 13 -14 10 -8 14 -7 14 2 0 8 -6 14 -14 14 -7
0 -13 -1 -13 -2z"/>
<path d="M2155 3261 c-3 -5 -2 -12 3 -15 5 -3 9 1 9 9 0 17 -3 19 -12 6z"/>
<path d="M1180 3004 c0 -8 5 -12 10 -9 6 4 8 11 5 16 -9 14 -15 11 -15 -7z"/>
<path d="M981 2461 c-8 -5 -9 -11 -3 -15 5 -3 12 1 16 9 6 17 6 18 -13 6z"/>
<path d="M955 2310 c-3 -5 -2 -10 4 -10 5 0 13 5 16 10 3 6 2 10 -4 10 -5 0
-13 -4 -16 -10z"/>
<path d="M748 2003 c7 -3 16 -2 19 1 4 3 -2 6 -13 5 -11 0 -14 -3 -6 -6z"/>
<path d="M2816 1752 c-2 -4 -1 -14 4 -22 7 -11 9 -9 7 8 -1 24 -3 26 -11 14z"/>
<path d="M606 1577 c-16 -12 -16 -14 -3 -14 9 0 18 6 21 14 3 7 4 13 3 13 -2
0 -11 -6 -21 -13z"/>
<path d="M637 1473 c10 -3 10 -10 2 -26 -10 -21 -9 -21 5 -3 16 20 13 37 -7
35 -9 0 -9 -2 0 -6z"/>
<path d="M660 1423 c5 -2 8 -9 4 -14 -3 -5 0 -9 6 -9 15 0 7 23 -8 26 -7 1 -8
0 -2 -3z"/>
<path d="M2575 1350 c-3 -5 -1 -10 4 -10 6 0 11 5 11 10 0 6 -2 10 -4 10 -3 0
-8 -4 -11 -10z"/>
<path d="M2556 1297 c3 -10 9 -15 12 -12 3 3 0 11 -7 18 -10 9 -11 8 -5 -6z"/>
<path d="M2275 870 c-3 -5 -1 -10 4 -10 6 0 11 5 11 10 0 6 -2 10 -4 10 -3 0
-8 -4 -11 -10z"/>
<path d="M2215 839 c-4 -6 -5 -12 -2 -15 2 -3 7 2 10 11 7 17 1 20 -8 4z"/>
<path d="M1905 710 c-3 -6 1 -7 9 -4 18 7 21 14 7 14 -6 0 -13 -4 -16 -10z"/>
<path d="M1583 695 c0 -8 4 -12 9 -9 5 3 6 10 3 15 -9 13 -12 11 -12 -6z"/>
<path d="M2108 703 c7 -3 16 -2 19 1 4 3 -2 6 -13 5 -11 0 -14 -3 -6 -6z"/>
<path d="M2110 686 c0 -2 7 -7 16 -10 8 -3 12 -2 9 4 -6 10 -25 14 -25 6z"/>
<path d="M3130 156 c0 -2 7 -7 16 -10 8 -3 12 -2 9 4 -6 10 -25 14 -25 6z"/>
<path d="M3055 40 c-3 -5 -1 -10 4 -10 6 0 11 5 11 10 0 6 -2 10 -4 10 -3 0
-8 -4 -11 -10z"/>
<path d="M3115 10 c-3 -5 -1 -10 4 -10 6 0 11 5 11 10 0 6 -2 10 -4 10 -3 0
-8 -4 -11 -10z"/>
</g>
</svg>
