<svg xmlns="http://www.w3.org/2000/svg" xmlns:xlink="http://www.w3.org/1999/xlink" preserveAspectRatio="xMidYMid" width="22" height="18" viewBox="0 0 22 18">
  <defs>
    <style>
      .cls-1 {
        fill: #03733d;
        fill-rule: evenodd;
      }
    </style>
  </defs>
  <path d="M20.465,16.476 L19.450,16.476 C19.450,15.066 18.311,13.934 16.912,13.934 C15.513,13.934 14.374,15.066 14.374,16.476 L8.787,16.476 C8.787,15.066 7.652,13.934 6.249,13.934 C4.850,13.934 3.711,15.066 3.711,16.476 L2.189,16.476 C1.353,16.476 0.668,15.789 0.668,14.951 L0.668,6.882 C0.244,6.194 -0.001,5.382 -0.001,4.513 C-0.001,2.018 2.019,-0.006 4.510,-0.006 C7.002,-0.006 9.022,2.018 9.022,4.513 C9.022,4.599 9.019,4.684 9.014,4.769 L14.374,4.769 C15.210,4.769 15.897,5.452 15.897,6.307 L18.435,6.307 C19.105,6.307 19.784,6.724 20.083,7.322 L21.658,10.478 C21.859,10.875 21.994,11.452 21.994,11.896 L21.994,14.947 C21.994,15.785 21.301,16.476 20.465,16.476 ZM4.510,1.124 C2.642,1.124 1.127,2.641 1.127,4.513 C1.127,4.732 1.149,4.946 1.188,5.153 C1.189,5.153 1.189,5.152 1.189,5.152 C1.489,6.717 2.861,7.898 4.510,7.898 C6.290,7.898 7.748,6.521 7.883,4.769 L7.883,4.769 C7.890,4.684 7.894,4.599 7.894,4.513 C7.894,2.641 6.379,1.124 4.510,1.124 ZM20.269,10.928 L19.143,8.307 C19.036,8.046 18.716,7.845 18.439,7.845 L15.895,7.845 L15.895,11.392 L19.962,11.392 C20.239,11.392 20.376,11.184 20.269,10.928 ZM3.706,4.384 L3.706,2.449 L4.564,2.449 L4.564,4.022 L5.751,5.205 L5.138,5.823 L3.706,4.384 ZM6.253,14.947 C7.094,14.947 7.776,15.630 7.776,16.473 C7.776,17.315 7.094,17.998 6.253,17.998 C5.412,17.998 4.731,17.315 4.731,16.473 C4.731,15.630 5.412,14.947 6.253,14.947 ZM16.916,14.947 C17.757,14.947 18.439,15.630 18.439,16.473 C18.439,17.315 17.757,17.998 16.916,17.998 C16.076,17.998 15.394,17.315 15.394,16.473 C15.394,15.630 16.076,14.947 16.916,14.947 Z" class="cls-1"/>
</svg>
