<?xml version="1.0" encoding="utf-8"?>
<!-- Generator: Adobe Illustrator 17.0.0, SVG Export Plug-In . SVG Version: 6.00 Build 0)  -->
<!DOCTYPE svg PUBLIC "-//W3C//DTD SVG 1.1//EN" "http://www.w3.org/Graphics/SVG/1.1/DTD/svg11.dtd">
<svg version="1.1" id="Calque_1" xmlns="http://www.w3.org/2000/svg" xmlns:xlink="http://www.w3.org/1999/xlink" x="0px" y="0px"
	 width="32px" height="32px" viewBox="0 0 32 32" enable-background="new 0 0 32 32" xml:space="preserve">
<g>
	<defs>
		<rect id="SVGID_1_" width="32" height="32"/>
	</defs>
	<clipPath id="SVGID_2_">
		<use xlink:href="#SVGID_1_"  overflow="visible"/>
	</clipPath>
	<path clip-path="url(#SVGID_2_)" fill="#DC5442" d="M13.285,17.967c-1.895-0.021-3.499,1.197-3.499,2.607
		c0,1.442,1.368,2.639,3.262,2.639c2.663,0,3.591-1.125,3.591-2.564c0-0.174-0.022-0.344-0.061-0.508
		c-0.209-0.817-1.037-1.262-2.066-1.977C14.139,18.043,13.726,17.971,13.285,17.967"/>
	<path clip-path="url(#SVGID_2_)" fill="#DC5442" d="M0,32h32V0H0V32z M17.223,11.773c0,1.043-0.578,1.883-1.393,2.522
		c-0.797,0.621-0.947,0.882-0.947,1.41c0,0.451,0.951,1.125,1.388,1.453c1.523,1.14,1.831,1.859,1.831,3.289
		c0,1.781-1.92,3.555-5.044,3.555c-2.74,0-5.052-1.116-5.052-2.897c0-1.811,1.918-3.695,4.658-3.695
		c0.299,0,0.572-0.008,0.855-0.008c-0.375-0.365-0.677-0.68-0.677-1.231c0-0.326,0.103-0.638,0.25-0.92
		c-0.149,0.012-0.301,0.02-0.457,0.02c-2.251,0-3.562-1.58-3.562-3.564c0-1.942,1.995-3.706,4.388-3.706h4.716l-1.054,1.106h-1.238
		C16.759,9.607,17.223,10.638,17.223,11.773 M23.994,11.482h-2.176v2.176H20.73v-2.176h-2.175v-1.088h2.175V8.218h1.088v2.176h2.176
		V11.482z"/>
	<path clip-path="url(#SVGID_2_)" fill="#DC5442" d="M12.751,8.768c-1.271-0.037-2.124,1.24-1.903,2.91
		c0.218,1.668,1.426,2.834,2.698,2.873c1.27,0.037,2.001-1.037,1.782-2.705C15.109,10.176,14.021,8.807,12.751,8.768"/>
</g>
</svg>
