<?xml version="1.0" encoding="utf-8"?>
<!-- Generator: Adobe Illustrator 17.0.0, SVG Export Plug-In . SVG Version: 6.00 Build 0)  -->
<!DOCTYPE svg PUBLIC "-//W3C//DTD SVG 1.1//EN" "http://www.w3.org/Graphics/SVG/1.1/DTD/svg11.dtd">
<svg version="1.1" id="Calque_1" xmlns="http://www.w3.org/2000/svg" xmlns:xlink="http://www.w3.org/1999/xlink" x="0px" y="0px"
	 width="32px" height="32px" viewBox="0 0 32 32" enable-background="new 0 0 32 32" xml:space="preserve">
<g>
	<defs>
		<rect id="SVGID_1_" width="32" height="32"/>
	</defs>
	<clipPath id="SVGID_2_">
		<use xlink:href="#SVGID_1_"  overflow="visible"/>
	</clipPath>
	<path clip-path="url(#SVGID_2_)" fill="#CB2027" d="M0,32h32V0H0V32z M17.652,19.564c-0.992,0-1.926-0.537-2.245-1.146
		c0,0-0.534,2.117-0.647,2.527c-0.398,1.443-1.569,2.889-1.659,3.006c-0.063,0.084-0.204,0.056-0.219-0.051
		c-0.025-0.186-0.324-2.008,0.028-3.494c0.177-0.746,1.183-5.008,1.183-5.008s-0.295-0.586-0.295-1.453
		c0-1.363,0.791-2.379,1.774-2.379c0.836,0,1.238,0.627,1.238,1.379c0,0.842-0.534,2.098-0.81,3.262
		c-0.231,0.974,0.488,1.769,1.45,1.769c1.741,0,2.914-2.236,2.914-4.885c0-2.015-1.357-3.523-3.824-3.523
		c-2.787,0-4.525,2.08-4.525,4.402c0,0.801,0.237,1.365,0.607,1.803c0.17,0.201,0.193,0.281,0.132,0.512
		c-0.045,0.17-0.145,0.576-0.188,0.738c-0.06,0.232-0.25,0.314-0.46,0.228c-1.284-0.523-1.882-1.929-1.882-3.509
		C10.224,11.13,12.425,8,16.793,8c3.509,0,5.818,2.539,5.818,5.265C22.611,16.871,20.606,19.564,17.652,19.564"/>
</g>
</svg>
