<?xml version="1.0" encoding="utf-8"?>
<!-- Generator: Adobe Illustrator 17.0.0, SVG Export Plug-In . SVG Version: 6.00 Build 0)  -->
<!DOCTYPE svg PUBLIC "-//W3C//DTD SVG 1.1//EN" "http://www.w3.org/Graphics/SVG/1.1/DTD/svg11.dtd">
<svg version="1.1" id="Calque_1" xmlns="http://www.w3.org/2000/svg" xmlns:xlink="http://www.w3.org/1999/xlink" x="0px" y="0px"
	 width="32px" height="32px" viewBox="0 0 32 32" enable-background="new 0 0 32 32" xml:space="preserve">
<g>
	<defs>
		<rect id="SVGID_1_" width="32" height="32"/>
	</defs>
	<clipPath id="SVGID_2_">
		<use xlink:href="#SVGID_1_"  overflow="visible"/>
	</clipPath>
	<path clip-path="url(#SVGID_2_)" fill="#2CAAE1" d="M0,32h32V0H0V32z M22.362,12.738c0.007,0.141,0.01,0.281,0.01,0.424
		c0,4.338-3.302,9.34-9.34,9.34c-1.855,0-3.579-0.543-5.032-1.475c0.257,0.031,0.518,0.045,0.783,0.045
		c1.539,0,2.953-0.523,4.076-1.404c-1.436-0.026-2.648-0.975-3.065-2.28c0.2,0.039,0.405,0.059,0.617,0.059
		c0.3,0,0.59-0.039,0.864-0.115c-1.5-0.301-2.633-1.629-2.633-3.219v-0.041c0.444,0.246,0.95,0.395,1.488,0.41
		c-0.881-0.588-1.46-1.594-1.46-2.732c0-0.602,0.162-1.164,0.444-1.651c1.618,1.987,4.038,3.293,6.766,3.43
		c-0.056-0.24-0.085-0.49-0.085-0.748c0-1.813,1.469-3.281,3.283-3.281c0.943,0,1.797,0.398,2.395,1.035
		c0.747-0.147,1.45-0.42,2.085-0.795c-0.246,0.766-0.765,1.41-1.443,1.814c0.664-0.078,1.297-0.253,1.885-0.515
		C23.56,11.697,23.004,12.275,22.362,12.738"/>
</g>
</svg>
