<svg xmlns="http://www.w3.org/2000/svg" xmlns:xlink="http://www.w3.org/1999/xlink" preserveAspectRatio="xMidYMid" width="32" height="32" viewBox="0 0 32 32">
  <defs>
    <style>
      .cls-1 {
        fill: #fff;
        fill-rule: evenodd;
      }
    </style>
  </defs>
  <path d="M-0.000,32.000 L-0.000,-0.000 L32.000,-0.000 L32.000,32.000 L-0.000,32.000 ZM13.429,8.174 L12.794,10.592 L12.729,10.592 L12.063,8.174 L11.030,8.174 L12.252,11.826 L12.252,14.222 L13.277,14.222 L13.277,11.713 L14.471,8.174 L13.429,8.174 ZM17.190,10.806 C17.190,10.467 17.070,10.187 16.831,9.972 C16.589,9.756 16.280,9.649 15.903,9.649 C15.489,9.649 15.158,9.751 14.913,9.956 C14.669,10.160 14.546,10.434 14.546,10.781 L14.546,13.093 C14.546,13.472 14.666,13.773 14.904,13.998 C15.143,14.222 15.463,14.334 15.861,14.334 C16.275,14.334 16.600,14.226 16.838,14.010 C17.073,13.791 17.190,13.493 17.190,13.111 L17.190,10.806 ZM20.531,9.761 L19.619,9.761 L19.619,13.148 C19.534,13.245 19.440,13.324 19.339,13.387 C19.236,13.450 19.150,13.481 19.084,13.481 C18.999,13.481 18.935,13.458 18.898,13.409 C18.861,13.363 18.840,13.287 18.840,13.181 L18.840,9.761 L17.929,9.761 L17.929,13.490 C17.929,13.755 17.983,13.955 18.090,14.086 C18.197,14.219 18.354,14.288 18.566,14.288 C18.737,14.288 18.913,14.238 19.094,14.144 C19.277,14.049 19.452,13.910 19.619,13.728 L19.619,14.222 L20.531,14.222 L20.531,9.761 ZM24.000,18.552 C24.000,16.938 22.690,15.628 21.077,15.628 L10.922,15.628 C9.307,15.628 8.000,16.938 8.000,18.552 L8.000,20.902 C8.000,22.515 9.307,23.825 10.922,23.825 L21.077,23.825 C22.690,23.825 24.000,22.515 24.000,20.902 L24.000,18.552 ZM20.253,22.260 C19.890,22.260 19.604,22.149 19.396,21.925 C19.189,21.705 19.084,21.398 19.084,21.007 L19.084,19.188 C19.084,18.838 19.198,18.550 19.427,18.330 C19.657,18.109 19.951,17.998 20.313,17.998 C20.685,17.998 20.969,18.101 21.168,18.305 C21.367,18.510 21.467,18.804 21.467,19.188 L21.467,20.221 L19.918,20.221 L19.918,20.984 C19.918,21.197 19.944,21.345 19.997,21.428 C20.051,21.510 20.142,21.551 20.271,21.551 C20.406,21.551 20.500,21.516 20.553,21.446 C20.605,21.376 20.634,21.222 20.634,20.984 L20.634,20.800 L21.467,20.800 L21.467,21.007 C21.467,21.422 21.366,21.736 21.161,21.947 C20.960,22.155 20.656,22.260 20.253,22.260 ZM20.634,19.591 L20.634,19.182 C20.634,19.012 20.604,18.890 20.549,18.819 C20.494,18.744 20.402,18.707 20.279,18.707 C20.150,18.707 20.058,18.744 20.002,18.819 C19.945,18.890 19.918,19.012 19.918,19.182 L19.918,19.591 L20.634,19.591 ZM17.919,22.201 C17.760,22.201 17.619,22.172 17.496,22.113 C17.372,22.054 17.255,21.964 17.149,21.839 L17.149,22.149 L16.331,22.149 L16.331,16.659 L17.149,16.659 L17.149,18.427 C17.259,18.305 17.375,18.211 17.496,18.146 C17.620,18.081 17.744,18.050 17.870,18.050 C18.127,18.050 18.322,18.135 18.457,18.308 C18.593,18.481 18.659,18.734 18.659,19.065 L18.659,21.313 C18.659,21.598 18.596,21.818 18.469,21.972 C18.343,22.126 18.158,22.201 17.919,22.201 ZM17.825,19.110 C17.825,18.972 17.798,18.869 17.740,18.798 C17.681,18.728 17.596,18.693 17.488,18.693 C17.430,18.693 17.373,18.706 17.316,18.732 C17.260,18.759 17.205,18.800 17.149,18.856 L17.149,21.380 C17.215,21.444 17.279,21.495 17.342,21.523 C17.404,21.551 17.469,21.567 17.537,21.567 C17.637,21.567 17.709,21.538 17.756,21.480 C17.802,21.422 17.825,21.331 17.825,21.201 L17.825,19.110 ZM14.913,21.705 C14.764,21.869 14.608,21.994 14.446,22.079 C14.285,22.167 14.128,22.209 13.976,22.209 C13.788,22.209 13.648,22.149 13.552,22.027 C13.459,21.906 13.411,21.727 13.411,21.485 L13.411,18.099 L14.221,18.099 L14.221,21.206 C14.221,21.301 14.238,21.371 14.270,21.413 C14.305,21.458 14.361,21.477 14.436,21.477 C14.495,21.477 14.571,21.450 14.662,21.393 C14.754,21.335 14.837,21.263 14.913,21.175 L14.913,18.099 L15.722,18.099 L15.722,22.149 L14.913,22.149 L14.913,21.705 ZM12.111,22.149 L11.199,22.149 L11.199,17.458 L10.256,17.458 L10.256,16.659 L13.056,16.659 L13.056,17.458 L12.111,17.458 L12.111,22.149 ZM15.858,13.562 C15.738,13.562 15.645,13.530 15.581,13.461 C15.516,13.394 15.483,13.300 15.483,13.177 L15.483,10.748 C15.483,10.650 15.518,10.572 15.587,10.510 C15.657,10.451 15.748,10.422 15.858,10.422 C15.979,10.422 16.077,10.451 16.151,10.510 C16.225,10.572 16.262,10.650 16.262,10.748 L16.262,13.177 C16.262,13.296 16.225,13.391 16.152,13.459 C16.080,13.528 15.982,13.562 15.858,13.562 Z" class="cls-1"/>
</svg>
